<svg version="1.2" xmlns="http://www.w3.org/2000/svg" viewBox="0 0 60 60" width="60" height="60">
	<title>Discounts_offers_icon-svg</title>
	<style>
		.s0 { fill: #ffffff } 
	</style>
	<g id="Discounts_offers_icon">
		<g id="Group_32">
		</g>
		<path id="noun-percentage-94992" fill-rule="evenodd" class="s0" d="m51.8 38.9c0.8 1.8 1 3.8 0.6 5.7-0.4 1.9-1.3 3.7-2.7 5.1-1.4 1.4-3.2 2.3-5.1 2.7-1.9 0.4-3.9 0.2-5.7-0.6-0.8 1.8-2.1 3.4-3.7 4.5-1.6 1.1-3.5 1.6-5.5 1.6-2 0-3.9-0.5-5.5-1.6-1.6-1.1-2.9-2.7-3.7-4.5-1.8 0.8-3.8 1-5.7 0.6-1.9-0.4-3.7-1.3-5.1-2.7-1.4-1.4-2.3-3.2-2.7-5.1-0.4-1.9-0.2-3.9 0.6-5.7-1.8-0.8-3.4-2.1-4.5-3.7-1.1-1.6-1.6-3.5-1.6-5.5 0-2 0.5-3.9 1.6-5.5 1.1-1.6 2.7-2.9 4.5-3.7-0.8-1.8-1-3.8-0.6-5.7 0.4-1.9 1.3-3.7 2.7-5.1 1.4-1.4 3.2-2.3 5.1-2.7 1.9-0.4 3.9-0.2 5.7 0.6 0.8-1.8 2.1-3.4 3.7-4.5 1.6-1.1 3.5-1.6 5.5-1.6 2 0 3.9 0.5 5.5 1.6 1.6 1.1 2.9 2.7 3.7 4.5 1.8-0.8 3.8-1 5.7-0.6 1.9 0.4 3.7 1.3 5.1 2.7 1.4 1.4 2.3 3.2 2.7 5.1 0.4 1.9 0.2 3.9-0.6 5.7 1.8 0.8 3.4 2.1 4.5 3.7 1.1 1.6 1.6 3.5 1.6 5.5 0 2-0.5 3.9-1.6 5.5-1.1 1.6-2.7 2.9-4.5 3.7zm-10.9 5.8q1.2-0.5 2.2-1.5 1-1 1.5-2.3 0.6-1.3 0.6-2.7c0-2.8-1.7-5.4-4.3-6.4-2.7-1.1-5.7-0.5-7.7 1.5-2 2-2.6 5-1.5 7.6 1.1 2.6 3.6 4.4 6.5 4.4q1.4 0 2.7-0.6zm1.1-8.2c0.7 1.6 0.3 3.4-0.9 4.6-1.2 1.2-3 1.6-4.6 1-1.6-0.7-2.6-2.2-2.6-3.9q0-0.9 0.3-1.7 0.4-0.7 1-1.3 0.6-0.6 1.3-1 0.8-0.3 1.7-0.3c1.7 0 3.2 1 3.8 2.6zm-21.5 4.5l20.5-20.5-2.1-2.1-20.5 20.5zm3.5-13.2q1.2-0.5 2.2-1.5 1-1 1.6-2.3 0.5-1.3 0.5-2.7c0-2.8-1.7-5.3-4.3-6.4-2.7-1.1-5.7-0.5-7.7 1.5-2 2-2.6 5-1.5 7.6 1.1 2.7 3.6 4.4 6.5 4.4q1.4 0 2.7-0.6zm1.2-8.1c0.7 1.6 0.3 3.4-0.9 4.6-1.2 1.2-3 1.6-4.6 0.9-1.6-0.7-2.6-2.2-2.6-3.9q0-0.9 0.3-1.6 0.3-0.8 0.9-1.4 0.6-0.6 1.4-0.9 0.7-0.3 1.6-0.3c1.7 0 3.2 1 3.9 2.6z"/>
	</g>
</svg>