<svg xmlns="http://www.w3.org/2000/svg" width="60" height="60" viewBox="0 0 60 60">
  <g id="Discounts_offers_icon" transform="translate(-1307 -1203)">
    <g id="Group_32" data-name="Group 32" transform="translate(312 -1927)">
      <circle id="Ellipse_3" data-name="Ellipse 3" cx="30" cy="30" r="30" transform="translate(995 3130)" fill="#ae2573"/>
    </g>
    <path id="noun-percentage-94992" d="M141.684,134.49a5.488,5.488,0,0,1-7.195,7.195,5.5,5.5,0,0,1-10.18,0,5.488,5.488,0,0,1-7.195-7.195,5.5,5.5,0,0,1,0-10.18,5.488,5.488,0,0,1,7.195-7.195,5.5,5.5,0,0,1,10.18,0,5.488,5.488,0,0,1,7.195,7.195A5.5,5.5,0,0,1,141.684,134.49Zm-7.577,3.559a3.9,3.9,0,1,1,3.9-3.9A3.9,3.9,0,0,1,134.107,138.049Zm0-6.314a2.385,2.385,0,0,0-2.373,2.373,2.354,2.354,0,1,0,2.373-2.373Zm-10.983,2.794,11.4-11.4,1.148,1.148-11.4,11.4Zm1.569-5.893a3.9,3.9,0,1,1,3.9-3.9A3.9,3.9,0,0,1,124.693,128.635Zm0-6.276a2.344,2.344,0,0,0-2.334,2.334,2.354,2.354,0,1,0,2.334-2.334Z" transform="translate(1207.3 1103.3)" fill="#fff" fill-rule="evenodd"/>
  </g>
</svg>
