<svg xmlns="http://www.w3.org/2000/svg" width="60" height="60" viewBox="0 0 60 60">
  <g id="Employee_Engagement_icon" transform="translate(-1307 -1203)">
    <circle id="Ellipse_3" data-name="Ellipse 3" cx="30" cy="30" r="30" transform="translate(1307 1203)" fill="#ed8b00"/>
    <g id="noun-high-five-4577332" transform="translate(1164.346 1180.524)">
      <path id="Path_101" data-name="Path 101" d="M267.184,104.72a.565.565,0,0,0,.762-.835l-2.5-2.279a.565.565,0,1,0-.762.835Z" transform="translate(-102.352 -65.619)" fill="#fff"/>
      <path id="Path_102" data-name="Path 102" d="M505.655,37.291a.571.571,0,0,0,.132.016.565.565,0,0,0,.549-.433l.6-2.517a.565.565,0,1,0-1.1-.264l-.6,2.517a.565.565,0,0,0,.418.682Z" transform="translate(-335.332)" fill="#fff"/>
      <path id="Path_103" data-name="Path 103" d="M159.185,333.33l3.134.753a.565.565,0,0,0,.682-.418.565.565,0,0,0-.418-.682l-3.134-.752a.565.565,0,0,0-.264,1.1Z" transform="translate(-0.003 -288.956)" fill="#fff"/>
      <path id="Path_104" data-name="Path 104" d="M184.755,220.6a1.889,1.889,0,0,0-1.44.418,1.945,1.945,0,0,0-.7,1.366l-.2,2-5.573-10.726a2.061,2.061,0,0,0-1.161-1.008,1.9,1.9,0,0,0-2.236.762l-.007-.014a2.315,2.315,0,0,0-4.108,2.131,2.257,2.257,0,0,0-1.224.245,2.572,2.572,0,0,0-1.139,1.295,2.047,2.047,0,0,0-.007,1.723l.228.438a2.829,2.829,0,0,0-1.382.333,2.2,2.2,0,0,0-.984,2.939l.446.858-2.255,4.34-.179-1.775a2.012,2.012,0,0,0-.727-1.413,1.957,1.957,0,0,0-1.491-.433,2.158,2.158,0,0,0-1.86,2.276c.007.308.14,5.983.2,8.537,0,.005,0,.011,0,.016a8.77,8.77,0,0,0,1.263,3.952,8.111,8.111,0,0,0,6.939,4.045,7.159,7.159,0,0,0,2.342-.394,7.959,7.959,0,0,0,4.411-3.935l.294-.529a7.23,7.23,0,0,0,1.694.85,7.091,7.091,0,0,0,2.32.39,8.043,8.043,0,0,0,6.881-4.012,8.7,8.7,0,0,0,1.253-3.921s0-.009,0-.014c.062-2.558.2-8.248.2-8.539a2.089,2.089,0,0,0-1.8-2.2Zm-11.844,17.452a6.836,6.836,0,0,1-3.78,3.395,6.523,6.523,0,0,1-5.224-.513,7.693,7.693,0,0,1-3.822-6.074c-.064-2.63-.2-8.541-.2-8.541s0-.019,0-.028a1.016,1.016,0,0,1,.866-1.086.837.837,0,0,1,.638.183.892.892,0,0,1,.318.632s0,.01,0,.015l.369,3.667a.565.565,0,0,0,1.064.2l6.342-12.206a1,1,0,0,1,.563-.493.858.858,0,0,1,.681.044.918.918,0,0,1,.426,1.08l-4.5,8.7a.565.565,0,0,0,1,.52l4.42-8.507a2.181,2.181,0,0,0,.122-.28l.686-1.327a1.194,1.194,0,0,1,.7-.537,1.266,1.266,0,0,1,.963.058,1.325,1.325,0,0,1,.559,1.633l-.785,1.51,0,.009-4.46,8.584a.565.565,0,1,0,1,.521l4.463-8.589a.935.935,0,0,1,.606-.448,1.208,1.208,0,0,1,.857.088,1.541,1.541,0,0,1,.648.76,1.023,1.023,0,0,1,.045.824l-.961,1.849,0,.007-3.456,6.65a.565.565,0,1,0,1,.521l3.458-6.654a.719.719,0,0,1,.555-.368,1.658,1.658,0,0,1,1.011.2,1.118,1.118,0,0,1,.532,1.507l-3.353,6.453-3.343,6.019-.008.014Z" transform="translate(0 -172.821)" fill="#fff"/>
    </g>
  </g>
</svg>
