<svg xmlns="http://www.w3.org/2000/svg" width="60" height="60" viewBox="0 0 60 60">
  <g id="holiday_icon" transform="translate(-995 -3241)">
    <circle id="Ellipse_6" data-name="Ellipse 6" cx="30" cy="30" r="30" transform="translate(995 3241)" fill="#ffb800"/>
    <path id="np_holiday_200351_000000" d="M20.352,31.522a2.385,2.385,0,0,0,.165-.891c0-.936-.491-1.694-1.1-1.694s-1.1.758-1.1,1.694a2.625,2.625,0,0,0,.029.388,9.311,9.311,0,0,0-3.33.128c-.712-6.55.015-10.722,1.079-13.35a1.075,1.075,0,0,0,.908.744c.525,0,.965-.572,1.071-1.335a.754.754,0,0,0,.332.08c.606,0,1.1-.758,1.1-1.694,0-.026,0-.051,0-.077a8.128,8.128,0,0,1,.609.651,6.725,6.725,0,0,1,1.659,4.39A7.542,7.542,0,0,1,21.633,22a.254.254,0,0,0,.085.263.106.106,0,0,0,.047.013c.054,0,.1-.05.127-.131a15.563,15.563,0,0,0,.451-3.633,7.844,7.844,0,0,0-.987-4.135,4.386,4.386,0,0,0-.686-.841l.062,0a4.159,4.159,0,0,1,2.564.795,5.16,5.16,0,0,1,1.777,3.234c.019.09.073.149.131.149a.092.092,0,0,0,.035-.006.236.236,0,0,0,.1-.25,16.622,16.622,0,0,0-.914-3.425c-.676-1.71-1.82-3.46-3.625-3.459a4.62,4.62,0,0,0-2.751,1.144c-1.741-3.178-3.38-4.3-4.81-4.3-3.03.022-4.983,4.93-5.119,5.262l-.007.018a.288.288,0,0,0,.043.285c.061.063.143.04.187-.051.928-1.947,2.136-2.59,3.374-2.595a6.2,6.2,0,0,1,3.317,1.25,3.169,3.169,0,0,0-.563-.053c-1.864,0-2.876,1.784-3.39,3.521a15.531,15.531,0,0,0-.576,3.475c0,.114.051.212.124.223l.013,0c.067,0,.126-.077.137-.181a4.753,4.753,0,0,1,1.934-3.745,5.106,5.106,0,0,1,2.844-.785c.091,0,.178,0,.26,0-3.63,4.778-3.18,16.131-3.086,17.9C9.544,33.5,6.838,36.726,5.049,40.959a2.973,2.973,0,0,1,1.227-.274,3.228,3.228,0,0,1,1.855.631,3.13,3.13,0,0,0,1.8.615,3.129,3.129,0,0,0,1.8-.615,3.041,3.041,0,0,1,3.711,0,3.106,3.106,0,0,0,1.8.615,3.143,3.143,0,0,0,1.807-.615,3.037,3.037,0,0,1,3.708,0,2.949,2.949,0,0,0,3.606,0,3.2,3.2,0,0,1,1.851-.631,2.9,2.9,0,0,1,.743.1c-1.98-4.58-5.037-7.954-8.61-9.262Z" transform="translate(1007.951 3246.167)" fill="#fff"/>
  </g>
</svg>
